<?xml version="1.0" standalone="no"?><!DOCTYPE svg PUBLIC "-//W3C//DTD SVG 1.1//EN" "http://www.w3.org/Graphics/SVG/1.1/DTD/svg11.dtd"><svg t="1521892955251" class="icon" style="" viewBox="0 0 1024 1024" version="1.1" xmlns="http://www.w3.org/2000/svg" p-id="1335" xmlns:xlink="http://www.w3.org/1999/xlink" width="32" height="32"><defs><style type="text/css"></style></defs><path d="M771.378957 223.517703C726.576565 159.168116 650.402675 116.692722 563.885206 116.692722c-86.504166 0-162.68215 42.475394-207.418027 106.824981L35.400766 223.517703 35.400766 897.074216l961.38287 0L996.783637 223.517703 771.378957 223.517703zM590.925049 789.465382c-129.770576 0-235.05855-105.291045-235.05855-235.060597 0-129.817648 105.287975-235.100506 235.05855-235.100506 129.821741 0 235.110739 105.282858 235.110739 235.100506C826.035788 684.174338 720.74679 789.465382 590.925049 789.465382z" p-id="1336"></path><path d="M590.925049 404.285766c-82.85608 0-150.07911 67.218938-150.07911 150.117996 0 82.842777 67.223031 150.08218 150.07911 150.08218 82.891895 0 150.117996-67.239404 150.117996-150.08218C741.043045 471.504704 673.816944 404.285766 590.925049 404.285766z" p-id="1337"></path><path d="M278.720468 368.714619c0 27.04189-21.929452 48.959062-48.959062 48.959062-27.025517 0-48.959062-21.917172-48.959062-48.959062 0-27.02654 21.933545-48.944735 48.959062-48.944735C256.791016 319.769884 278.720468 341.688079 278.720468 368.714619z" p-id="1338"></path></svg>